<svg xmlns="http://www.w3.org/2000/svg" version="1.1" width="200" height="200">
    <rect x="55" y="55" width="10" height="10" fill="#228B22" rx="2" opacity="1.0" />
    <rect x="69" y="69" width="10" height="10" fill="#228B22" rx="2" opacity="0.95" />
    <rect x="83" y="83" width="10" height="10" fill="#228B22" rx="2" opacity="0.9" />
    <rect x="97" y="83" width="10" height="10" fill="#228B22" rx="2" opacity="0.85" />
    <rect x="111" y="83" width="10" height="10" fill="#228B22" rx="2" opacity="0.8" />
    <rect x="125" y="97" width="10" height="10" fill="#228B22" rx="2" opacity="0.75" />
    <rect x="55" y="69" width="10" height="10" fill="#228B22" rx="2" opacity="0.95" />
    <rect x="69" y="83" width="10" height="10" fill="#228B22" rx="2" opacity="0.9" />
    <rect x="83" y="97" width="10" height="10" fill="#228B22" rx="2" opacity="0.85" />
    <rect x="97" y="97" width="10" height="10" fill="#228B22" rx="2" opacity="0.8" />
    <rect x="111" y="111" width="10" height="10" fill="#228B22" rx="2" opacity="0.75" />
    <rect x="125" y="111" width="10" height="10" fill="#228B22" rx="2" opacity="0.7" />
    <rect x="55" y="83" width="10" height="10" fill="#228B22" rx="2" opacity="0.9" />
    <rect x="69" y="97" width="10" height="10" fill="#228B22" rx="2" opacity="0.85" />
    <rect x="83" y="111" width="10" height="10" fill="#228B22" rx="2" opacity="0.8" />
    <rect x="97" y="111" width="10" height="10" fill="#228B22" rx="2" opacity="0.75" />
    <rect x="111" y="125" width="10" height="10" fill="#228B22" rx="2" opacity="0.7" />
</svg>
